<?xml version="1.0" standalone="no"?>
<!DOCTYPE svg PUBLIC "-//W3C//DTD SVG 20010904//EN"
 "http://www.w3.org/TR/2001/REC-SVG-20010904/DTD/svg10.dtd">
<svg version="1.0" xmlns="http://www.w3.org/2000/svg"
 width="265.000000pt" height="265.000000pt" viewBox="0 0 265.000000 265.000000"
 preserveAspectRatio="xMidYMid meet">
<metadata>
Created by potrace 1.14, written by Peter Selinger 2001-2017
</metadata>
<g transform="translate(0.000000,265.000000) scale(0.100000,-0.100000)"
fill="#000000" stroke="none">
<path d="M1680 2123 c-3 -23 -2 -39 3 -34 5 5 7 24 5 42 -3 33 -4 33 -8 -8z"/>
<path d="M1712 2140 c0 -14 2 -19 5 -12 2 6 2 18 0 25 -3 6 -5 1 -5 -13z"/>
<path d="M998 2121 c-95 -37 -173 -111 -218 -204 -30 -63 -46 -142 -35 -178 6
-19 12 -21 52 -15 148 20 289 167 308 321 13 98 -10 114 -107 76z"/>
<path d="M1590 2086 c0 -2 7 -6 15 -10 8 -3 15 -1 15 4 0 6 -7 10 -15 10 -8 0
-15 -2 -15 -4z"/>
<path d="M1485 2061 c-14 -6 -7 -8 25 -8 32 0 39 2 25 8 -11 4 -22 8 -25 8 -3
0 -14 -4 -25 -8z"/>
<path d="M1788 2053 c7 -3 16 -2 19 1 4 3 -2 6 -13 5 -11 0 -14 -3 -6 -6z"/>
<path d="M1418 2033 c7 -3 16 -2 19 1 4 3 -2 6 -13 5 -11 0 -14 -3 -6 -6z"/>
<path d="M1844 2031 c7 -11 46 -35 46 -28 0 3 -12 12 -26 22 -15 9 -23 12 -20
6z"/>
<path d="M1600 2010 c0 -5 5 -10 10 -10 6 0 10 5 10 10 0 6 -4 10 -10 10 -5 0
-10 -4 -10 -10z"/>
<path d="M1933 1978 c15 -13 27 -29 27 -36 0 -7 7 -12 15 -12 8 0 19 -9 25
-20 6 -11 16 -20 22 -20 15 0 -47 65 -87 92 l-30 20 28 -24z"/>
<path d="M1520 1980 c0 -5 5 -10 10 -10 6 0 10 5 10 10 0 6 -4 10 -10 10 -5 0
-10 -4 -10 -10z"/>
<path d="M1315 1948 c-13 -28 -14 -30 -1 -13 9 11 20 26 26 33 7 8 7 12 1 12
-6 0 -18 -15 -26 -32z"/>
<path d="M1558 1956 c-11 -15 -13 -27 -7 -37 7 -11 9 -11 9 4 0 9 12 23 26 29
23 11 29 10 44 -10 26 -32 34 -27 13 8 -21 37 -60 40 -85 6z"/>
<path d="M1671 1964 c0 -11 3 -14 6 -6 3 7 2 16 -1 19 -3 4 -6 -2 -5 -13z"/>
<path d="M2187 1892 c5 -11 2 -14 -10 -9 -12 4 -17 1 -18 -11 0 -10 -3 -12 -6
-4 -2 6 -12 12 -21 12 -14 0 -14 -2 -3 -9 11 -7 9 -11 -8 -20 -16 -9 -21 -9
-22 1 0 7 -4 4 -8 -7 -14 -35 -2 -34 56 1 31 19 60 34 65 34 16 0 7 18 -11 23
-15 3 -18 1 -14 -11z"/>
<path d="M1630 1889 c0 -5 9 -9 20 -9 11 0 20 2 20 4 0 2 -9 6 -20 9 -11 3
-20 1 -20 -4z"/>
<path d="M1276 1882 c-5 -8 106 -83 434 -294 52 -34 153 -100 224 -146 99 -64
134 -82 145 -75 18 11 50 71 50 93 0 8 -9 -4 -20 -28 -12 -28 -23 -41 -30 -36
-8 4 -9 3 -5 -4 12 -20 -20 -13 -39 8 -11 12 -35 28 -54 38 -20 9 -40 20 -46
25 -28 23 -152 97 -162 97 -7 0 -13 7 -13 16 0 8 -4 13 -9 9 -6 -3 -15 4 -21
15 -11 21 -2 27 18 10 7 -5 6 -3 -2 6 -15 18 -40 10 -30 -9 3 -7 -4 0 -16 16
-12 15 -26 24 -32 21 -5 -3 -17 0 -26 8 -9 8 -39 27 -67 43 -27 16 -55 33 -62
39 -6 6 -43 31 -82 56 -58 37 -68 47 -58 59 10 12 9 14 -7 8 -10 -4 -28 -5
-39 -1 -16 5 -17 8 -6 16 11 8 11 9 -2 5 -9 -3 -21 -1 -27 5 -6 6 -12 6 -16 0z"/>
<path d="M1408 1833 c7 -3 16 -2 19 1 4 3 -2 6 -13 5 -11 0 -14 -3 -6 -6z"/>
<path d="M1220 1820 c0 -5 5 -10 11 -10 5 0 7 5 4 10 -3 6 -8 10 -11 10 -2 0
-4 -4 -4 -10z"/>
<path d="M1465 1790 c3 -5 8 -10 11 -10 2 0 4 5 4 10 0 6 -5 10 -11 10 -5 0
-7 -4 -4 -10z"/>
<path d="M1191 1774 c0 -11 3 -14 6 -6 3 7 2 16 -1 19 -3 4 -6 -2 -5 -13z"/>
<path d="M1142 1764 c10 -10 20 -16 22 -13 3 3 -5 11 -17 18 -21 13 -21 12 -5
-5z"/>
<path d="M1335 1770 c3 -5 13 -10 21 -10 8 0 12 5 9 10 -3 6 -13 10 -21 10 -8
0 -12 -4 -9 -10z"/>
<path d="M980 1754 c0 -8 5 -12 10 -9 6 3 10 10 10 16 0 5 -4 9 -10 9 -5 0
-10 -7 -10 -16z"/>
<path d="M1238 1753 c7 -3 16 -2 19 1 4 3 -2 6 -13 5 -11 0 -14 -3 -6 -6z"/>
<path d="M2101 1755 c0 -5 6 -21 14 -35 8 -14 14 -20 14 -15 0 6 -6 21 -14 35
-8 14 -14 21 -14 15z"/>
<path d="M1184 1739 c-3 -5 -2 -13 1 -19 7 -12 -26 -77 -56 -111 -13 -14 -33
-42 -44 -63 -11 -21 -27 -51 -35 -66 -18 -34 -52 -58 -58 -41 -2 7 -8 6 -18
-4 -17 -16 -59 -6 -59 15 0 7 -6 15 -14 18 -8 3 -11 0 -7 -7 4 -6 2 -11 -3
-11 -11 0 -14 11 -12 40 0 10 -1 11 -5 3 -10 -23 -22 -14 -28 21 -6 30 -1 42
30 83 20 26 42 51 48 55 6 4 7 8 1 8 -5 0 -2 6 7 14 14 10 -4 12 -110 12 -110
-1 -135 2 -187 22 -132 51 -266 38 -382 -37 -187 -121 -261 -354 -203 -640 43
-212 151 -415 289 -544 92 -86 160 -96 293 -44 73 28 94 32 178 32 85 0 103
-4 170 -33 88 -38 145 -41 206 -12 56 27 159 133 214 219 25 38 51 70 58 70 8
1 28 -9 44 -21 38 -27 107 -28 141 -2 22 17 75 92 162 229 71 113 89 140 99
150 6 6 18 22 26 37 8 15 36 60 62 101 64 100 65 102 32 132 -15 14 -32 25
-38 25 -6 0 -5 -4 3 -9 7 -5 11 -13 7 -19 -4 -6 2 -8 16 -4 14 3 19 2 14 -6
-4 -7 -2 -12 4 -12 8 0 7 -6 -1 -21 -9 -18 -13 -19 -21 -8 -7 10 -8 9 -4 -6 4
-14 -12 -47 -49 -103 -30 -46 -55 -86 -55 -88 0 -2 -10 -15 -22 -29 -12 -14
-31 -41 -42 -60 -68 -116 -160 -256 -182 -276 -20 -18 -27 -21 -33 -10 -6 9
-11 10 -15 2 -4 -6 -2 -11 4 -11 6 0 8 -4 5 -10 -3 -5 -17 -10 -29 -10 -31 0
-96 28 -96 41 0 5 -4 8 -9 4 -5 -3 -13 0 -17 6 -3 6 -1 15 6 19 6 4 11 10 11
14 -3 20 0 26 9 21 6 -4 7 1 3 11 -4 10 -2 15 3 11 5 -3 10 2 11 11 1 9 4 27
8 39 6 18 1 24 -32 39 -73 34 -172 140 -157 167 4 7 3 9 -1 5 -15 -14 -45 94
-45 164 0 92 36 176 109 260 25 29 54 40 31 13 -9 -10 -9 -15 -1 -15 6 0 12 5
12 10 1 6 3 15 4 20 1 6 3 15 4 20 0 6 8 10 16 10 22 0 18 26 -7 42 -20 13
-21 17 -9 32 8 9 9 16 3 16 -6 0 -13 -6 -16 -12 -3 -10 -8 -9 -18 3 -35 41
-211 119 -224 98z"/>
<path d="M1151 1723 c7 -12 15 -20 18 -17 3 2 -3 12 -13 22 -17 16 -18 16 -5
-5z"/>
<path d="M1932 1715 c-13 -29 -6 -32 19 -9 14 12 22 13 38 4 12 -6 21 -15 21
-20 0 -6 4 -10 9 -10 22 0 -4 40 -31 49 -42 15 -43 14 -56 -14z"/>
<path d="M1346 1721 c-17 -6 -17 -8 -4 -14 10 -3 19 0 22 9 3 8 4 14 3 13 -1
0 -11 -4 -21 -8z"/>
<path d="M1393 1703 c-15 -5 -17 -23 -4 -23 5 0 11 7 15 15 3 8 4 15 3 14 -1
0 -8 -3 -14 -6z"/>
<path d="M1121 1664 c0 -11 3 -14 6 -6 3 7 2 16 -1 19 -3 4 -6 -2 -5 -13z"/>
<path d="M1480 1670 c-9 -6 -10 -10 -3 -10 6 0 15 5 18 10 8 12 4 12 -15 0z"/>
<path d="M1926 1663 c-6 -14 -5 -15 5 -6 7 7 10 15 7 18 -3 3 -9 -2 -12 -12z"/>
<path d="M1548 1643 c7 -3 16 -2 19 1 4 3 -2 6 -13 5 -11 0 -14 -3 -6 -6z"/>
<path d="M1988 1643 c7 -3 16 -2 19 1 4 3 -2 6 -13 5 -11 0 -14 -3 -6 -6z"/>
<path d="M2143 1585 c0 -33 2 -45 4 -27 2 18 2 45 0 60 -2 15 -4 0 -4 -33z"/>
<path d="M1631 1597 c2 -1 13 -9 24 -17 19 -14 19 -14 6 3 -7 9 -18 17 -24 17
-6 0 -8 -1 -6 -3z"/>
<path d="M890 1570 c0 -5 5 -10 10 -10 6 0 10 5 10 10 0 6 -4 10 -10 10 -5 0
-10 -4 -10 -10z"/>
<path d="M1686 1541 c-4 -5 2 -7 13 -4 10 3 22 0 25 -6 4 -6 12 -11 19 -11 14
0 -24 29 -40 30 -6 0 -14 -4 -17 -9z"/>
<path d="M1895 1540 c3 -5 11 -10 16 -10 6 0 7 5 4 10 -3 6 -11 10 -16 10 -6
0 -7 -4 -4 -10z"/>
<path d="M2083 1474 c0 -17 2 -22 7 -13 5 6 6 18 3 26 -8 19 -10 16 -10 -13z"/>
<path d="M1008 1463 c7 -3 16 -2 19 1 4 3 -2 6 -13 5 -11 0 -14 -3 -6 -6z"/>
<path d="M1856 1445 c10 -8 24 -14 29 -14 6 0 1 6 -9 14 -11 8 -24 15 -30 15
-5 0 -1 -7 10 -15z"/>
<path d="M2480 1281 c0 -5 -6 -11 -12 -14 -7 -2 -2 -2 12 0 34 6 50 23 22 23
-12 0 -22 -4 -22 -9z"/>
<path d="M2343 1253 c9 -2 23 -2 30 0 6 3 -1 5 -18 5 -16 0 -22 -2 -12 -5z"/>
<path d="M1946 1227 c3 -10 9 -15 12 -12 3 3 0 11 -7 18 -10 9 -11 8 -5 -6z"/>
<path d="M2140 1210 c-13 -8 -12 -10 3 -10 9 0 17 5 17 10 0 12 -1 12 -20 0z"/>
<path d="M2600 1201 c0 -5 5 -13 10 -16 6 -3 10 -2 10 4 0 5 -4 13 -10 16 -5
3 -10 2 -10 -4z"/>
<path d="M2088 1193 c7 -3 16 -2 19 1 4 3 -2 6 -13 5 -11 0 -14 -3 -6 -6z"/>
<path d="M2038 1183 c13 -3 19 -9 16 -15 -4 -7 -2 -8 5 -4 17 11 3 26 -22 25
-22 -2 -22 -2 1 -6z"/>
<path d="M1967 1133 c-4 -3 -7 -11 -7 -17 0 -6 5 -5 12 2 6 6 9 14 7 17 -3 3
-9 2 -12 -2z"/>
<path d="M1316 1115 c4 -8 8 -15 10 -15 2 0 4 7 4 15 0 8 -4 15 -10 15 -5 0
-7 -7 -4 -15z"/>
<path d="M2572 1105 c-12 -15 -30 -25 -45 -25 -14 0 -64 -9 -111 -20 -66 -16
-91 -18 -106 -10 -12 6 -31 9 -43 7 -19 -4 -18 -4 5 -6 31 -1 49 -21 19 -21
-10 0 -27 -3 -37 -7 -11 -4 -15 -3 -10 5 3 6 1 14 -5 18 -8 4 -9 3 -5 -4 9
-15 -37 -34 -61 -25 -10 4 -14 2 -10 -4 5 -7 -10 -13 -40 -16 -104 -11 -125
-5 -147 46 -12 25 -15 28 -15 11 -1 -27 40 -71 74 -80 15 -4 50 -2 79 4 28 6
128 27 221 47 225 48 237 51 258 80 23 33 4 33 -21 0z"/>
<path d="M1840 1065 c0 -8 2 -15 4 -15 2 0 6 7 10 15 3 8 1 15 -4 15 -6 0 -10
-7 -10 -15z"/>
<path d="M1763 985 c-3 -9 -3 -18 -1 -21 3 -3 8 4 11 16 6 23 -1 27 -10 5z"/>
<path d="M1514 738 l-19 -22 23 16 c13 9 33 14 45 12 21 -4 21 -4 2 5 -29 14
-30 13 -51 -11z"/>
<path d="M1548 713 c6 -2 18 -2 25 0 6 3 1 5 -13 5 -14 0 -19 -2 -12 -5z"/>
</g>
</svg>
